<?xml version="1.0" standalone="no"?><!DOCTYPE svg PUBLIC "-//W3C//DTD SVG 1.1//EN" "http://www.w3.org/Graphics/SVG/1.1/DTD/svg11.dtd"><svg t="1510649401833" class="icon" style="" viewBox="0 0 1024 1024" version="1.1" xmlns="http://www.w3.org/2000/svg" p-id="4591" xmlns:xlink="http://www.w3.org/1999/xlink" width="32" height="32"><defs><style type="text/css"></style></defs><path d="M151.990813 175.990625h719.994375a35.999719 35.999719 0 0 1 35.999718 35.999719v24.743807a35.999719 35.999719 0 0 1-35.999718 35.999718h-719.994375a35.999719 35.999719 0 0 1-35.999719-35.999718V211.990344a35.999719 35.999719 0 0 1 35.999719-35.999719z m0 288.741744h719.994375a35.999719 35.999719 0 0 1 35.999718 35.999719v22.511824a35.999719 35.999719 0 0 1-35.999718 35.999719h-719.994375a35.999719 35.999719 0 0 1-35.999719-35.999719v-22.511824a35.999719 35.999719 0 0 1 35.999719-35.999719z m0 286.509762h719.994375a35.999719 35.999719 0 0 1 35.999718 35.999719v24.743806a35.999719 35.999719 0 0 1-35.999718 35.999719h-719.994375a35.999719 35.999719 0 0 1-35.999719-35.999719v-24.743806a35.999719 35.999719 0 0 1 35.999719-35.999719z" p-id="4592" fill="#ffffff"></path></svg>