<?xml version="1.0" standalone="no"?><!DOCTYPE svg PUBLIC "-//W3C//DTD SVG 1.1//EN" "http://www.w3.org/Graphics/SVG/1.1/DTD/svg11.dtd"><svg t="1510649316482" class="icon" style="" viewBox="0 0 1024 1024" version="1.1" xmlns="http://www.w3.org/2000/svg" p-id="3762" xmlns:xlink="http://www.w3.org/1999/xlink" width="32" height="32"><defs><style type="text/css"></style></defs><path d="M887.212102 264.644379 320.083527 264.644379c-29.826306 0-54.012148-23.896246-54.012148-53.723575s24.185842-53.723575 54.012148-53.723575l567.127552 0c29.827329 0 54.012148 23.896246 54.012148 53.723575S917.039431 264.644379 887.212102 264.644379zM887.212102 562.426483 320.083527 562.426483c-29.826306 0-54.012148-24.408923-54.012148-54.235229 0-29.828352 24.185842-54.235229 54.012148-54.235229l567.127552 0c29.827329 0 54.012148 24.406876 54.012148 54.235229C941.22425 538.018583 917.039431 562.426483 887.212102 562.426483zM887.212102 859.18528 320.083527 859.18528c-29.826306 0-54.012148-24.407899-54.012148-54.235229s24.185842-54.235229 54.012148-54.235229l567.127552 0c29.827329 0 54.012148 24.407899 54.012148 54.235229S917.039431 859.18528 887.212102 859.18528zM153.565003 257.94377l-47.261397 0c-13.05534 0-23.630187-10.601452-23.630187-23.655769l0-47.234791c0-13.080923 10.574846-23.630187 23.630187-23.630187l47.261397 0c13.054317 0 23.630187 10.549264 23.630187 23.630187l0 47.234791C177.19519 247.341295 166.61932 257.94377 153.565003 257.94377L153.565003 257.94377zM153.565003 852.076372l-47.261397 0c-13.05534 0-23.630187-10.600429-23.630187-23.655769l0-47.233768c0-13.080923 10.574846-23.63121 23.630187-23.63121l47.261397 0c13.054317 0 23.630187 10.550287 23.630187 23.63121l0 47.233768C177.19519 841.475943 166.61932 852.076372 153.565003 852.076372L153.565003 852.076372zM153.565003 541.507034l-47.261397 0c-13.05534 0-23.630187-10.601452-23.630187-23.655769l0-47.234791c0-13.080923 10.574846-23.630187 23.630187-23.630187l47.261397 0c13.054317 0 23.630187 10.549264 23.630187 23.630187l0 47.234791C177.19519 530.905582 166.61932 541.507034 153.565003 541.507034L153.565003 541.507034z" p-id="3763" fill="#333333"></path></svg>