<?xml version="1.0" standalone="no"?><!DOCTYPE svg PUBLIC "-//W3C//DTD SVG 1.1//EN" "http://www.w3.org/Graphics/SVG/1.1/DTD/svg11.dtd"><svg t="1522399192203" class="icon" style="" viewBox="0 0 1024 1024" version="1.1" xmlns="http://www.w3.org/2000/svg" p-id="3633" xmlns:xlink="http://www.w3.org/1999/xlink" width="32" height="32"><defs><style type="text/css"></style></defs><path d="M268.896 476.032 622.24 125.92c18.848-18.656 49.216-18.528 67.872 0.32 18.656 18.816 18.528 49.216-0.32 67.872l-319.456 316.576 318.176 321.056c18.656 18.816 18.528 49.216-0.32 67.872-9.344 9.28-21.568 13.92-33.792 13.92-12.352 0-24.704-4.736-34.08-14.208L270.208 545.984c-0.512-0.512-0.672-1.248-1.184-1.792-0.128-0.128-0.288-0.16-0.416-0.288C249.952 525.088 250.08 494.688 268.896 476.032z" p-id="3634" fill="#646464"></path></svg>