<?xml version="1.0" standalone="no"?><!DOCTYPE svg PUBLIC "-//W3C//DTD SVG 1.1//EN" "http://www.w3.org/Graphics/SVG/1.1/DTD/svg11.dtd"><svg t="1522397761382" class="icon" style="" viewBox="0 0 1024 1024" version="1.1" xmlns="http://www.w3.org/2000/svg" p-id="2561" xmlns:xlink="http://www.w3.org/1999/xlink" width="32" height="32"><defs><style type="text/css"></style></defs><path d="M822.00345 776.822434l0.022513-0.022513L246.50423 201.317075c-5.78782-5.791913-13.785981-9.374508-22.621207-9.374508-17.662265 0-31.980365 14.3181-31.980365 31.980365 0 8.834202 3.582595 16.832364 9.373485 22.620184L776.11226 821.339324c5.838985 6.277984 14.166651 10.209526 23.416316 10.209526 17.662265 0 31.980365-14.3181 31.980365-31.980365C831.508941 790.667767 827.871087 782.620487 822.00345 776.822434z" p-id="2562" fill="#646464"></path><path d="M776.783549 201.448058l-0.022513-0.022513L201.278189 776.947278c-5.791913 5.78782-9.374508 13.785981-9.374508 22.621207 0 17.662265 14.3181 31.980365 31.980365 31.980365 8.834202 0 16.832364-3.582595 22.620184-9.373485l574.797231-574.836117c6.277984-5.838985 10.209526-14.166651 10.209526-23.416316 0-17.662265-14.3181-31.980365-31.980365-31.980365C790.628882 191.942567 782.580578 195.58042 776.783549 201.448058z" p-id="2563" fill="#646464"></path></svg>